<svg xmlns="http://www.w3.org/2000/svg" xmlns:xlink="http://www.w3.org/1999/xlink" version="1.1" width="1000" height="1000" viewBox="0 0 1000 1000" xml:space="preserve">
<desc>Created with Fabric.js 3.5.0</desc>
<defs>
</defs>
<rect x="0" y="0" width="100%" height="100%" fill="#ffffff"/>
<g transform="matrix(50.5107 0 0 50.5107 500.0003 500.0003)" id="53495">
<path style="stroke: none; stroke-width: 1; stroke-dasharray: none; stroke-linecap: butt; stroke-dashoffset: 0; stroke-linejoin: round; stroke-miterlimit: 2; is-custom-font: none; font-file-url: none; fill: rgb(0,74,173); fill-rule: nonzero; opacity: 1;" vector-effect="non-scaling-stroke" transform=" translate(-11.998, -11.997)" d="m 14.523 18.787 s 4.501 -4.505 6.255 -6.26 c 0.146 -0.146 0.219 -0.338 0.219 -0.53 s -0.073 -0.383 -0.219 -0.53 c -1.753 -1.754 -6.255 -6.258 -6.255 -6.258 c -0.144 -0.145 -0.334 -0.217 -0.524 -0.217 c -0.193 0 -0.385 0.074 -0.532 0.221 c -0.293 0.292 -0.295 0.766 -0.004 1.056 l 4.978 4.978 h -14.692 c -0.414 0 -0.75 0.336 -0.75 0.75 s 0.336 0.75 0.75 0.75 h 14.692 l -4.979 4.979 c -0.289 0.289 -0.286 0.762 0.006 1.054 c 0.148 0.148 0.341 0.222 0.533 0.222 c 0.19 0 0.378 -0.072 0.522 -0.215 z" stroke-linecap="round"/>
</g>
</svg>