<svg xmlns="http://www.w3.org/2000/svg" xmlns:xlink="http://www.w3.org/1999/xlink" version="1.1" width="1000" height="1000" viewBox="0 0 1000 1000" xml:space="preserve">
<desc>Created with Fabric.js 3.5.0</desc>
<defs>
</defs>
<rect x="0" y="0" width="100%" height="100%" fill="#ffffff"/>
<g transform="matrix(2.6542 0 0 2.6542 499.9969 499.9969)" id="370703">
<path style="stroke: none; stroke-width: 1; stroke-dasharray: none; stroke-linecap: butt; stroke-dashoffset: 0; stroke-linejoin: miter; stroke-miterlimit: 4; is-custom-font: none; font-file-url: none; fill: rgb(0,74,173); fill-rule: nonzero; opacity: 1;" vector-effect="non-scaling-stroke" transform=" translate(-171.254, -171.254)" d="M 171.254 0 C 76.837 0 0.003 76.819 0.003 171.248 c 0 94.428 76.829 171.26 171.251 171.26 c 94.438 0 171.251 -76.826 171.251 -171.26 C 342.505 76.819 265.697 0 171.254 0 z M 245.371 136.161 l -89.69 89.69 c -2.693 2.69 -6.242 4.048 -9.758 4.048 c -3.543 0 -7.059 -1.357 -9.761 -4.048 l -39.007 -39.007 c -5.393 -5.398 -5.393 -14.129 0 -19.521 c 5.392 -5.392 14.123 -5.392 19.516 0 l 29.252 29.262 l 79.944 -79.948 c 5.381 -5.386 14.111 -5.386 19.504 0 C 250.764 122.038 250.764 130.769 245.371 136.161 z" stroke-linecap="round"/>
</g>
</svg>