<svg xmlns="http://www.w3.org/2000/svg" xmlns:xlink="http://www.w3.org/1999/xlink" version="1.1" width="1000" height="1000" viewBox="0 0 1000 1000" xml:space="preserve">
<desc>Created with Fabric.js 3.5.0</desc>
<defs>
</defs>
<rect x="0" y="0" width="100%" height="100%" fill="#ffffff"/>
<g transform="matrix(7.3987 0 0 7.3987 500.0001 500.0001)" id="801154">
<path style="stroke: none; stroke-width: 1; stroke-dasharray: none; stroke-linecap: butt; stroke-dashoffset: 0; stroke-linejoin: miter; stroke-miterlimit: 4; is-custom-font: none; font-file-url: none; fill: rgb(0,74,173); fill-rule: nonzero; opacity: 1;" vector-effect="non-scaling-stroke" transform=" translate(-61.4417, -44.4898)" d="M 85.33 16.83 c 12.99 -9.83 31.92 1.63 31.92 13.63 c 0 7.75 -2.97 10.79 -7.57 14.03 c 23.2 12.41 12.7 39.86 -7.54 44.49 H 31.45 c -33.2 0 -45.48 -44.99 -10.13 -55.89 C 14.69 6.66 66.5 -17.2 85.33 16.83 L 85.33 16.83 L 85.33 16.83 z M 59.48 72.42 l 4.1 -20.86 l 4.16 6.28 c 8.96 -3.6 14 -9.54 14.74 -18.66 c 7.36 12.87 2.9 24.42 -6.44 31.17 l 4.25 6.39 L 59.48 72.42 L 59.48 72.42 L 59.48 72.42 L 59.48 72.42 L 59.48 72.42 L 59.48 72.42 L 59.48 72.42 z M 65.81 26.96 l -4.1 20.86 l -4.16 -6.28 c -8.96 3.6 -14 9.54 -14.74 18.66 c -7.36 -12.87 -2.9 -24.42 6.44 -31.17 l -4.25 -6.39 L 65.81 26.96 L 65.81 26.96 L 65.81 26.96 L 65.81 26.96 L 65.81 26.96 L 65.81 26.96 L 65.81 26.96 z" stroke-linecap="round"/>
</g>
</svg>