<svg xmlns="http://www.w3.org/2000/svg" xmlns:xlink="http://www.w3.org/1999/xlink" version="1.1" width="1000" height="1000" viewBox="0 0 1000 1000" xml:space="preserve">
<desc>Created with Fabric.js 3.5.0</desc>
<defs>
</defs>
<rect x="0" y="0" width="100%" height="100%" fill="#ffffff"/>
<g transform="matrix(7.3982 0 0 7.3982 499.9999 500)" id="521176">
<path style="stroke: none; stroke-width: 1; stroke-dasharray: none; stroke-linecap: butt; stroke-dashoffset: 0; stroke-linejoin: miter; stroke-miterlimit: 4; is-custom-font: none; font-file-url: none; fill: rgb(0,74,173); fill-rule: nonzero; opacity: 1;" vector-effect="non-scaling-stroke" transform=" translate(-61.44, -50.785)" d="M 44.97 12.84 h -17.2 L 0 49.37 L 27.77 85.9 h 17.2 L 17.2 49.37 L 44.97 12.84 L 44.97 12.84 z M 77.91 12.84 h 17.2 l 27.77 36.53 L 95.11 85.9 h -17.2 l 27.77 -36.53 L 77.91 12.84 L 77.91 12.84 z M 70.17 0.04 l 5.96 1.39 c 0.94 0.22 1.52 1.16 1.31 2.1 l -22.5 96.69 c -0.22 0.93 -1.16 1.52 -2.1 1.31 l -5.95 -1.39 c -0.94 -0.22 -1.52 -1.16 -1.31 -2.1 l 22.5 -96.69 C 68.3 0.42 69.24 -0.17 70.17 0.04 L 70.17 0.04 L 70.17 0.04 z" stroke-linecap="round"/>
</g>
</svg>