<svg xmlns="http://www.w3.org/2000/svg" xmlns:xlink="http://www.w3.org/1999/xlink" version="1.1" width="1000" height="1000" viewBox="0 0 1000 1000" xml:space="preserve">
<desc>Created with Fabric.js 3.5.0</desc>
<defs>
</defs>
<rect x="0" y="0" width="100%" height="100%" fill="#ffffff"/>
<g transform="matrix(0.9091 0 0 0.9091 500.0045 500.0045)" id="982728">
<g style="" vector-effect="non-scaling-stroke">
		<g transform="matrix(1 0 0 1 0.14 284.44)" id="Layer_2">
<path style="stroke: none; stroke-width: 1; stroke-dasharray: none; stroke-linecap: butt; stroke-dashoffset: 0; stroke-linejoin: miter; stroke-miterlimit: 4; is-custom-font: none; font-file-url: none; fill: rgb(0,74,173); fill-rule: nonzero; opacity: 1;" transform=" translate(-500.14, -784.44)" d="M 775.34 847.27 h -550.4 c 19.45 -29.13 50.22 -48.76 84.83 -54.12 c 54.9 -8.48 133.39 -24.9 140.16 -50.05 c 1.91 -7.11 1.49 -14.37 -0.5 -21.49 h 101.43 c -1.99 7.12 -2.43 14.38 -0.51 21.49 c 6.77 25.15 85.26 41.57 140.17 50.05 C 725.13 798.51 755.89 818.14 775.34 847.27 z" stroke-linecap="round"/>
</g>
		<g transform="matrix(1 0 0 1 0.144 -296.868)" id="Layer_2">
<path style="stroke: none; stroke-width: 1; stroke-dasharray: none; stroke-linecap: butt; stroke-dashoffset: 0; stroke-linejoin: miter; stroke-miterlimit: 4; is-custom-font: none; font-file-url: none; fill: rgb(0,74,173); fill-rule: nonzero; opacity: 1;" transform=" translate(-500.144, -203.132)" d="M 232.832 181.732 v 72.8 h 534.624 v -72.8 c 0 -16.5 -13.5 -30 -30 -30 H 262.832 C 246.332 151.732 232.832 165.232 232.832 181.732 z M 674.936 203.132 c 0 -6.875 5.625 -12.5 12.5 -12.5 h 28 c 6.875 0 12.5 5.625 12.5 12.5 s -5.625 12.5 -12.5 12.5 h -28 C 680.561 215.632 674.936 210.007 674.936 203.132 z M 591.436 203.132 c 0 -6.875 5.625 -12.5 12.5 -12.5 h 28 c 6.875 0 12.5 5.625 12.5 12.5 s -5.625 12.5 -12.5 12.5 h -28 C 597.061 215.632 591.436 210.007 591.436 203.132 z M 507.936 203.132 c 0 -6.875 5.625 -12.5 12.5 -12.5 h 28 c 6.875 0 12.5 5.625 12.5 12.5 s -5.625 12.5 -12.5 12.5 h -28 C 513.561 215.632 507.936 210.007 507.936 203.132 z" stroke-linecap="round"/>
</g>
		<g transform="matrix(1 0 0 1 0.1445 -46.382)" id="Layer_2">
<path style="stroke: none; stroke-width: 1; stroke-dasharray: none; stroke-linecap: butt; stroke-dashoffset: 0; stroke-linejoin: miter; stroke-miterlimit: 4; is-custom-font: none; font-file-url: none; fill: rgb(0,74,173); fill-rule: nonzero; opacity: 1;" transform=" translate(-500.1445, -453.618)" d="M 817.912 210.63 h -25.457 v 43.901 c 0 0.046 0 0.091 0 0.137 c -0.044 8.244 -0.044 16.483 0 24.727 c 0 0.046 0 0.091 0 0.137 v 310.58 c 0 30.376 -24.624 55 -55 55 H 262.832 c -30.376 0 -55 -24.624 -55 -55 v -310.58 c 0 -0.046 0 -0.092 0 -0.137 c 0.045 -8.244 0.045 -16.482 0 -24.725 c 0 -0.046 0 -0.092 0 -0.137 V 210.63 h -25.456 c -16.568 0 -30 13.431 -30 30 v 425.976 c 0 16.568 13.432 30 30 30 h 635.537 c 16.568 0 30 -13.432 30 -30 V 240.63 C 847.912 224.062 834.48 210.63 817.912 210.63 z" stroke-linecap="round"/>
</g>
		<g transform="matrix(1 0 0 1 118.0215 -20.5345)" id="Layer_2">
<path style="stroke: none; stroke-width: 1; stroke-dasharray: none; stroke-linecap: butt; stroke-dashoffset: 0; stroke-linejoin: miter; stroke-miterlimit: 4; is-custom-font: none; font-file-url: none; fill: rgb(0,74,173); fill-rule: nonzero; opacity: 1;" transform=" translate(-618.0215, -479.4655)" d="M 619.503 466.613 h -15.807 v 25.705 h 15.807 c 3.623 0 6.666 -1.228 9.138 -3.684 c 2.471 -2.456 3.706 -5.538 3.706 -9.25 c 0 -3.492 -1.235 -6.493 -3.706 -9.005 C 626.169 467.87 623.125 466.613 619.503 466.613 z" stroke-linecap="round"/>
</g>
		<g transform="matrix(1 0 0 1 0.145 -50.18)" id="Layer_2">
<path style="stroke: none; stroke-width: 1; stroke-dasharray: none; stroke-linecap: butt; stroke-dashoffset: 0; stroke-linejoin: miter; stroke-miterlimit: 4; is-custom-font: none; font-file-url: none; fill: rgb(0,74,173); fill-rule: nonzero; opacity: 1;" transform=" translate(-500.145, -449.82)" d="M 232.83 279.53 v 310.58 c 0 16.54 13.46 30 30 30 h 474.63 c 16.54 0 30 -13.46 30 -30 c 0 0 0 -310.57 0 -310.58 H 232.83 z M 277.579 338.096 h 28 c 6.875 0 12.5 5.625 12.5 12.5 s -5.625 12.5 -12.5 12.5 h -28 c -6.875 0 -12.5 -5.625 -12.5 -12.5 S 270.704 338.096 277.579 338.096 z M 328.608 535.387 c 4.881 4.881 4.881 12.796 0 17.678 c -4.882 4.881 -12.796 4.881 -17.678 0 l -42.191 -42.191 c -4.881 -4.881 -4.881 -12.796 0 -17.678 l 42.191 -42.19 c 4.881 -4.882 12.796 -4.882 17.678 0 c 4.881 4.881 4.881 12.796 0 17.678 l -33.352 33.352 L 328.608 535.387 z M 453.403 520.56 c -2.84 6.605 -6.713 12.361 -11.624 17.272 c -4.912 4.912 -10.67 8.76 -17.273 11.543 c -6.605 2.783 -13.671 4.175 -21.202 4.175 c -7.531 0 -14.628 -1.392 -21.284 -4.175 c -6.659 -2.783 -12.443 -6.603 -17.354 -11.461 c -4.912 -4.855 -8.815 -10.56 -11.707 -17.109 c -2.893 -6.549 -4.338 -13.589 -4.338 -21.12 c 0 -7.311 1.364 -14.27 4.093 -20.874 c 2.727 -6.603 6.521 -12.414 11.379 -17.436 c 4.856 -5.02 10.56 -9.005 17.109 -11.952 c 6.549 -2.947 13.643 -4.421 21.284 -4.421 c 7.859 0 15.145 1.448 21.857 4.339 c 6.713 2.893 12.551 6.795 17.518 11.706 c 4.966 4.912 8.841 10.67 11.624 17.273 c 2.783 6.605 4.175 13.617 4.175 21.039 C 457.659 506.89 456.24 513.958 453.403 520.56 z M 570.626 520.56 c -2.84 6.605 -6.713 12.361 -11.624 17.272 c -4.912 4.912 -10.67 8.76 -17.273 11.543 c -6.605 2.783 -13.67 4.175 -21.202 4.175 c -7.531 0 -14.628 -1.392 -21.284 -4.175 c -6.659 -2.783 -12.443 -6.603 -17.355 -11.461 c -4.912 -4.855 -8.815 -10.56 -11.707 -17.109 c -2.893 -6.549 -4.338 -13.589 -4.338 -21.12 c 0 -7.311 1.364 -14.27 4.093 -20.874 c 2.727 -6.603 6.521 -12.414 11.379 -17.436 c 4.856 -5.02 10.56 -9.005 17.109 -11.952 c 6.549 -2.947 13.643 -4.421 21.284 -4.421 c 7.859 0 15.145 1.448 21.857 4.339 c 6.713 2.893 12.551 6.795 17.518 11.706 c 4.966 4.912 8.841 10.67 11.625 17.273 c 2.783 6.605 4.175 13.617 4.175 21.039 C 574.883 506.89 573.463 513.958 570.626 520.56 z M 649.119 492.072 c -1.698 3.876 -4.024 7.286 -6.981 10.233 c -2.957 2.947 -6.408 5.268 -10.35 6.958 c -3.943 1.694 -8.104 2.538 -12.484 2.538 h -15.607 v 29.634 c 0 6.549 -3.193 9.824 -9.578 9.824 c -6.495 0 -9.742 -3.274 -9.742 -9.824 v -82.68 c 0 -7.639 3.873 -11.461 11.624 -11.461 h 23.413 c 4.364 0 8.513 0.847 12.443 2.538 c 3.93 1.693 7.368 4.011 10.315 6.958 c 2.947 2.947 5.265 6.385 6.958 10.314 c 1.691 3.93 2.537 8.079 2.537 12.443 C 651.667 484.024 650.818 488.199 649.119 492.072 z M 731.547 510.874 l -42.191 42.191 c -4.881 4.881 -12.796 4.881 -17.677 0 c -4.882 -4.882 -4.882 -12.796 0 -17.678 l 33.352 -33.352 l -33.352 -33.352 c -4.882 -4.882 -4.882 -12.796 0 -17.678 c 4.881 -4.882 12.796 -4.882 17.677 0 l 42.191 42.19 C 736.428 498.078 736.428 505.992 731.547 510.874 z M 722.708 363.096 H 359.579 c -6.875 0 -12.5 -5.625 -12.5 -12.5 s 5.625 -12.5 12.5 -12.5 h 363.129 c 6.875 0 12.5 5.625 12.5 12.5 S 729.583 363.096 722.708 363.096 z" stroke-linecap="round"/>
</g>
		<g transform="matrix(1 0 0 1 20.444 -0.7235)" id="Layer_2">
<path style="stroke: none; stroke-width: 1; stroke-dasharray: none; stroke-linecap: butt; stroke-dashoffset: 0; stroke-linejoin: miter; stroke-miterlimit: 4; is-custom-font: none; font-file-url: none; fill: rgb(0,74,173); fill-rule: nonzero; opacity: 1;" transform=" translate(-520.444, -499.2765)" d="M 544.758 474.636 c -3.167 -3.165 -6.876 -5.674 -11.133 -7.531 c -4.257 -1.854 -8.734 -2.783 -13.425 -2.783 c -4.912 0 -9.47 0.957 -13.671 2.865 c -4.203 1.911 -7.833 4.477 -10.888 7.695 c -3.057 3.221 -5.459 6.986 -7.204 11.297 c -1.747 4.313 -2.62 8.816 -2.62 13.507 c 0 4.804 0.872 9.278 2.62 13.425 c 1.745 4.15 4.175 7.805 7.286 10.969 c 3.11 3.168 6.738 5.648 10.887 7.45 c 4.147 1.801 8.677 2.701 13.589 2.701 c 4.912 0 9.468 -0.9 13.671 -2.701 c 4.201 -1.801 7.884 -4.282 11.051 -7.45 c 3.165 -3.165 5.648 -6.876 7.449 -11.133 c 1.801 -4.257 2.701 -8.785 2.701 -13.589 c 0 -4.802 -0.929 -9.332 -2.783 -13.589 C 550.432 481.512 547.923 477.803 544.758 474.636 z" stroke-linecap="round"/>
</g>
		<g transform="matrix(1 0 0 1 -96.78 -0.7235)" id="Layer_2">
<path style="stroke: none; stroke-width: 1; stroke-dasharray: none; stroke-linecap: butt; stroke-dashoffset: 0; stroke-linejoin: miter; stroke-miterlimit: 4; is-custom-font: none; font-file-url: none; fill: rgb(0,74,173); fill-rule: nonzero; opacity: 1;" transform=" translate(-403.22, -499.2765)" d="M 427.534 474.636 c -3.167 -3.165 -6.876 -5.674 -11.133 -7.531 c -4.257 -1.854 -8.734 -2.783 -13.425 -2.783 c -4.912 0 -9.47 0.957 -13.671 2.865 c -4.203 1.911 -7.833 4.477 -10.888 7.695 c -3.057 3.221 -5.459 6.986 -7.204 11.297 c -1.747 4.313 -2.62 8.816 -2.62 13.507 c 0 4.804 0.872 9.278 2.62 13.425 c 1.745 4.15 4.175 7.805 7.286 10.969 c 3.111 3.168 6.738 5.648 10.887 7.45 c 4.147 1.801 8.678 2.701 13.589 2.701 c 4.912 0 9.468 -0.9 13.671 -2.701 c 4.2 -1.801 7.884 -4.282 11.051 -7.45 c 3.165 -3.165 5.648 -6.876 7.449 -11.133 c 1.801 -4.257 2.701 -8.785 2.701 -13.589 c 0 -4.802 -0.929 -9.332 -2.784 -13.589 C 433.208 481.512 430.699 477.803 427.534 474.636 z" stroke-linecap="round"/>
</g>
</g>
</g>
</svg>