<svg xmlns="http://www.w3.org/2000/svg" xmlns:xlink="http://www.w3.org/1999/xlink" version="1.1" width="1000" height="1000" viewBox="0 0 1000 1000" xml:space="preserve">
<desc>Created with Fabric.js 3.5.0</desc>
<defs>
</defs>
<rect x="0" y="0" width="100%" height="100%" fill="#ffffff"/>
<g transform="matrix(7.3982 0 0 7.3982 499.9999 499.9999)" id="517573">
<path style="stroke: none; stroke-width: 1; stroke-dasharray: none; stroke-linecap: butt; stroke-dashoffset: 0; stroke-linejoin: miter; stroke-miterlimit: 4; is-custom-font: none; font-file-url: none; fill: rgb(0,74,173); fill-rule: nonzero; opacity: 1;" vector-effect="non-scaling-stroke" transform=" translate(-61.44, -53.1532)" d="M 58.15 52.98 l 28.6 -18.22 c 0.2 -0.15 0.48 -0.12 0.65 0.06 l 2.76 2.94 c 0.17 0.18 0.18 0.47 0.02 0.66 L 68.51 63.6 c -3.08 3.31 -6.37 3.96 -9.02 3.1 c -1.32 -0.43 -2.47 -1.22 -3.35 -2.25 c -0.88 -1.02 -1.49 -2.27 -1.74 -3.61 c -0.49 -2.67 0.49 -5.66 3.73 -7.85 L 58.15 52.98 L 58.15 52.98 z M 19.33 106.17 c -3.05 -2.87 -5.8 -6.05 -8.21 -9.48 c -2.39 -3.4 -4.44 -7.06 -6.11 -10.91 C 3.38 82 2.12 78.02 1.26 73.88 C 0.44 69.86 0 65.7 0 61.44 c 0 -8.32 1.66 -16.25 4.65 -23.49 C 7.77 30.43 12.33 23.66 18 18 c 5.66 -5.66 12.43 -10.23 19.95 -13.34 C 45.19 1.66 53.12 0 61.44 0 c 8.3 0 16.21 1.66 23.43 4.66 c 7.52 3.12 14.28 7.7 19.95 13.37 c 5.68 5.68 10.26 12.46 13.38 19.97 c 3.01 7.24 4.68 15.16 4.68 23.44 c 0 4.05 -0.4 8.01 -1.16 11.85 c -0.78 3.94 -1.95 7.75 -3.46 11.4 c -1.54 3.71 -3.43 7.25 -5.64 10.55 c -2.23 3.34 -4.78 6.45 -7.6 9.3 c -0.19 0.19 -0.51 0.19 -0.7 0 l -3.07 -3.06 c -0.06 -0.02 -0.12 -0.06 -0.17 -0.11 l -8.56 -8.56 c -0.19 -0.19 -0.19 -0.51 0 -0.7 l 4.49 -4.49 c 0.19 -0.19 0.51 -0.19 0.7 0 l 6.61 6.61 c 1.4 -1.82 2.69 -3.72 3.85 -5.7 c 1.25 -2.12 2.35 -4.34 3.3 -6.63 c 1.28 -3.1 2.29 -6.35 2.97 -9.71 c 0.64 -3.12 1 -6.35 1.07 -9.64 h -9.11 c -0.27 0 -0.5 -0.22 -0.5 -0.5 V 55.7 c 0 -0.27 0.22 -0.5 0.5 -0.5 h 8.76 c -0.68 -5.85 -2.31 -11.43 -4.72 -16.58 c -2.49 -5.31 -5.82 -10.15 -9.82 -14.37 l -5.86 5.86 c -0.19 0.19 -0.51 0.19 -0.7 0 l -4.49 -4.49 c -0.19 -0.19 -0.19 -0.51 0 -0.7 l 5.65 -5.65 c -4.44 -3.57 -9.45 -6.46 -14.87 -8.5 C 75.1 8.8 69.47 7.62 63.6 7.39 v 8.03 c 0 0.27 -0.22 0.5 -0.5 0.5 h -6.36 c -0.27 0 -0.5 -0.22 -0.5 -0.5 V 7.59 c -5.83 0.55 -11.4 2.04 -16.54 4.29 c -5.31 2.33 -10.17 5.49 -14.42 9.3 l 5.87 5.87 c 0.19 0.19 0.19 0.51 0 0.7 l -4.49 4.49 c -0.19 0.19 -0.51 0.19 -0.7 0 l -5.8 -5.8 c -3.73 4.4 -6.78 9.41 -8.96 14.86 C 9.1 46.6 7.79 52.29 7.44 58.23 h 9.03 c 0.27 0 0.5 0.22 0.5 0.5 v 6.36 c 0 0.27 -0.22 0.5 -0.5 0.5 H 7.5 c 0.22 2.94 0.68 5.8 1.35 8.58 c 0.72 3.01 1.7 5.92 2.91 8.72 c 1.05 2.43 2.27 4.76 3.64 6.98 c 1.29 2.09 2.72 4.09 4.28 5.97 l 7.24 -7.24 c 0.19 -0.19 0.51 -0.19 0.7 0 l 4.49 4.49 c 0.19 0.19 0.19 0.51 0 0.7 c -4.14 4.14 -8.09 8.11 -12.09 12.36 C 19.84 106.35 19.53 106.36 19.33 106.17 L 19.33 106.17 z" stroke-linecap="round"/>
</g>
</svg>