<svg xmlns="http://www.w3.org/2000/svg" xmlns:xlink="http://www.w3.org/1999/xlink" version="1.1" width="1000" height="1000" viewBox="0 0 1000 1000" xml:space="preserve">
<desc>Created with Fabric.js 3.5.0</desc>
<defs>
</defs>
<rect x="0" y="0" width="100%" height="100%" fill="#ffffff"/>
<g transform="matrix(3.6364 0 0 3.6364 500.0045 500.0035)" id="395339">
<g style="" vector-effect="non-scaling-stroke">
		<g transform="matrix(1 0 0 1 74.7204 4.061)" id="Layer_1">
<path style="stroke: none; stroke-width: 1; stroke-dasharray: none; stroke-linecap: butt; stroke-dashoffset: 0; stroke-linejoin: miter; stroke-miterlimit: 4; is-custom-font: none; font-file-url: none; fill: rgb(0,74,173); fill-rule: nonzero; opacity: 1;" transform=" translate(-199.7204, -129.056)" d="M 213.91 80.82 A 50.28 50.28 0 1 0 250 129 A 49.84 49.84 0 0 0 213.91 80.82 Z m 6.77 64.83 h 0 a 6.06 6.06 0 0 1 -8.52 1 L 193.64 132 V 104 a 6.06 6.06 0 0 1 6.06 -6.07 h 0 a 6.07 6.07 0 0 1 6.07 6.07 v 22.15 l 13.92 11 A 6.07 6.07 0 0 1 220.68 145.65 Z" stroke-linecap="round"/>
</g>
		<g transform="matrix(0.96 -0.26 0.26 0.96 -38.7376 -39.6065)" id="Layer_1">
<circle style="stroke: none; stroke-width: 1; stroke-dasharray: none; stroke-linecap: butt; stroke-dashoffset: 0; stroke-linejoin: miter; stroke-miterlimit: 4; is-custom-font: none; font-file-url: none; fill: rgb(0,74,173); fill-rule: nonzero; opacity: 1;" cx="0" cy="0" r="55.62"/>
</g>
		<g transform="matrix(1 0 0 1 -38.0831 62.6712)" id="Layer_1">
<path style="stroke: none; stroke-width: 1; stroke-dasharray: none; stroke-linecap: butt; stroke-dashoffset: 0; stroke-linejoin: miter; stroke-miterlimit: 4; is-custom-font: none; font-file-url: none; fill: rgb(0,74,173); fill-rule: nonzero; opacity: 1;" transform=" translate(-86.9169, -187.6663)" d="M 156.66 176.57 a 68.1 68.1 0 0 0 -43.92 -20.15 a 289.92 289.92 0 0 0 -52.31 0.07 a 68.19 68.19 0 0 0 -43.25 20.08 a 91.64 91.64 0 0 0 -15.26 20.6 c -5.7 10.27 2 22.89 13.73 22.89 H 158.19 c 11.75 0 19.42 -12.62 13.72 -22.89 A 91.3 91.3 0 0 0 156.66 176.57 Z" stroke-linecap="round"/>
</g>
</g>
</g>
</svg>